<?xml version="1.0" standalone="no"?>
<!DOCTYPE svg PUBLIC "-//W3C//DTD SVG 20010904//EN"
 "http://www.w3.org/TR/2001/REC-SVG-20010904/DTD/svg10.dtd">
<svg version="1.0" xmlns="http://www.w3.org/2000/svg"
 width="400.000000pt" height="400.000000pt" viewBox="0 0 400.000000 400.000000"
 preserveAspectRatio="xMidYMid meet">
<metadata>
Created by potrace 1.14, written by Peter Selinger 2001-2017
</metadata>
<g transform="translate(0.000000,400.000000) scale(0.100000,-0.100000)"
fill="#000000" stroke="none">
<path d="M1338 3563 c12 -2 30 -2 40 0 9 3 -1 5 -23 4 -22 0 -30 -2 -17 -4z"/>
<path d="M1433 3540 c9 -6 17 -22 17 -35 0 -14 5 -25 11 -25 6 0 9 14 7 33 -2
26 -8 33 -28 35 -22 2 -23 1 -7 -8z"/>
<path d="M1650 3519 c0 -17 -5 -20 -21 -16 -27 7 -38 -4 -129 -132 -100 -141
-125 -167 -143 -153 -15 13 -37 -2 -37 -25 0 -7 -5 -13 -11 -13 -5 0 -8 4 -4
9 3 5 1 13 -5 16 -6 4 -8 14 -6 23 6 18 -6 43 -20 44 -5 0 -18 4 -29 9 -11 4
-28 10 -38 13 -10 3 -15 10 -12 16 3 5 1 10 -4 10 -6 0 -11 -4 -11 -9 0 -5 -6
-11 -14 -14 -10 -4 -12 0 -9 14 4 14 0 19 -13 19 -16 0 -17 2 -4 10 17 11 16
11 -22 14 -21 1 -28 -3 -28 -16 0 -10 -7 -18 -15 -18 -8 0 -15 -6 -15 -14 0
-23 22 -76 31 -76 5 0 9 -7 9 -15 0 -8 4 -15 9 -15 22 0 18 -36 -11 -93 -34
-66 -46 -158 -25 -176 8 -6 27 -3 55 10 50 23 71 39 124 94 37 39 38 39 44 17
5 -17 9 -20 20 -11 16 13 34 4 34 -18 0 -13 3 -13 15 -3 12 10 15 9 15 -6 1
-15 5 -13 23 11 52 70 62 78 83 67 11 -6 42 -29 69 -51 36 -30 59 -41 82 -41
18 0 33 4 33 9 0 4 -10 6 -23 4 -16 -3 -38 7 -73 35 -28 22 -70 48 -94 59 -25
11 -54 31 -65 43 -11 13 -14 20 -6 15 8 -4 17 -2 22 6 7 11 13 11 38 -4 47
-27 54 -23 47 30 -3 28 -1 52 6 60 12 15 32 18 23 3 -10 -16 22 -12 39 5 11
11 16 12 19 2 2 -6 3 -3 1 9 -2 13 6 30 21 44 14 13 25 33 25 44 0 17 2 18 10
6 8 -12 10 -12 16 3 5 13 10 15 19 7 9 -8 14 -7 18 2 4 10 6 10 6 1 2 -29 21
-10 21 20 0 23 -8 41 -25 57 -13 12 -22 27 -19 32 6 10 -24 48 -38 48 -4 0 -8
-10 -8 -21z m-510 -214 c0 -8 -2 -15 -4 -15 -2 0 -6 7 -10 15 -3 8 -1 15 4 15
6 0 10 -7 10 -15z m140 -109 c0 -7 -9 -16 -21 -19 -20 -5 -20 -5 -3 14 20 23
24 23 24 5z"/>
<path d="M1399 3399 c-24 -39 -57 -87 -73 -105 -16 -19 -26 -37 -22 -41 6 -6
35 26 77 89 14 21 29 35 33 31 4 -4 4 0 0 10 -3 9 -2 17 4 17 10 0 35 60 28
67 -2 2 -23 -28 -47 -68z"/>
<path d="M1130 3413 c0 -7 -11 -15 -25 -19 -28 -7 -32 -19 -9 -28 21 -8 39 -8
31 1 -4 3 0 11 8 17 10 8 12 16 5 26 -6 10 -10 11 -10 3z"/>
<path d="M1720 3329 c0 -5 5 -7 10 -4 6 3 10 8 10 11 0 2 -4 4 -10 4 -5 0 -10
-5 -10 -11z"/>
<path d="M1736 3294 c-9 -23 -8 -24 12 -23 9 0 12 3 5 5 -7 3 -9 12 -6 20 3 8
3 14 0 14 -3 0 -8 -7 -11 -16z"/>
<path d="M1666 3278 c9 -30 8 -30 27 -22 13 5 14 9 4 25 -17 27 -40 25 -31 -3z"/>
<path d="M1775 3280 c-3 -6 1 -7 9 -4 18 7 21 14 7 14 -6 0 -13 -4 -16 -10z"/>
<path d="M1670 3230 c-9 -6 -10 -10 -3 -10 6 0 15 5 18 10 8 12 4 12 -15 0z"/>
<path d="M1305 3220 c-3 -5 -1 -10 4 -10 6 0 11 5 11 10 0 6 -2 10 -4 10 -3 0
-8 -4 -11 -10z"/>
<path d="M1620 2949 c0 -6 7 -17 15 -25 13 -14 15 -13 15 4 0 11 -7 22 -15 26
-8 3 -15 1 -15 -5z"/>
<path d="M1346 2911 c-4 -6 -13 -10 -21 -9 -17 4 -76 -63 -70 -80 3 -7 1 -10
-5 -7 -5 3 -24 -7 -42 -23 -18 -15 -45 -36 -60 -45 -31 -20 -57 -66 -83 -151
-18 -61 -18 -44 1 -451 7 -133 -2 -181 -41 -239 -14 -20 -25 -39 -25 -41 0 -2
19 2 41 10 23 8 66 15 95 15 50 0 57 3 101 45 26 25 49 41 53 36 3 -5 41 8 85
29 79 38 90 55 17 24 -20 -8 -39 -15 -42 -16 -3 0 -16 -5 -30 -10 -28 -10 -92
6 -111 28 -13 16 9 43 130 158 35 32 74 77 87 98 40 63 75 94 149 133 93 49
104 60 83 81 -14 14 -19 14 -44 1 -16 -8 -44 -18 -61 -22 -32 -6 -37 -13 -34
-45 2 -13 1 -13 -8 0 -10 13 -15 7 -12 -13 0 -4 -2 -6 -6 -5 -9 3 -93 -78 -93
-90 0 -10 -55 -66 -105 -107 -20 -16 -48 -40 -61 -52 -29 -26 -38 -29 -31 -9
3 7 0 19 -6 25 -8 8 -6 11 10 11 25 0 48 25 37 41 -4 7 1 18 11 26 18 12 18
13 -2 13 -23 0 -33 18 -33 56 0 34 29 31 63 -7 21 -25 32 -30 52 -25 39 10 65
42 65 80 0 19 3 43 7 53 5 13 -1 11 -26 -10 -19 -15 -37 -24 -41 -20 -8 9 -30
184 -30 241 0 52 24 108 56 129 16 10 47 17 80 17 30 1 54 4 54 8 0 13 -50 21
-92 14 -33 -6 -39 -4 -35 8 4 9 -3 22 -16 31 -19 13 -20 17 -7 25 8 5 35 11
60 12 l45 1 -39 4 c-22 3 -45 12 -51 20 -9 12 -14 13 -19 4z m-213 -356 c-3
-9 -8 -14 -10 -11 -3 3 -2 9 2 15 9 16 15 13 8 -4z m-21 -47 c-7 -7 -12 -8
-12 -2 0 14 12 26 19 19 2 -3 -1 -11 -7 -17z m-15 -50 c-3 -8 -6 -5 -6 6 -1
11 2 17 5 13 3 -3 4 -12 1 -19z m-20 -60 c-3 -8 -6 -5 -6 6 -1 11 2 17 5 13 3
-3 4 -12 1 -19z"/>
<path d="M1063 2815 c-12 -13 -29 -27 -36 -32 -8 -4 -17 -21 -21 -38 -5 -20
-4 -27 2 -20 6 6 12 19 14 29 1 11 8 21 14 23 7 2 10 -21 9 -73 l-2 -76 19 38
c10 21 22 40 26 43 4 4 16 25 26 48 13 29 23 40 33 36 12 -5 11 -1 -3 15 l-18
21 -18 -21 c-10 -12 -18 -34 -18 -50 0 -18 -5 -28 -15 -28 -10 0 -15 11 -15
35 0 19 3 35 8 35 4 0 13 9 20 20 17 27 2 24 -25 -5z"/>
<path d="M615 2819 c8 -11 55 -12 55 -1 0 5 -14 9 -30 10 -17 0 -28 -4 -25 -9z"/>
<path d="M687 2816 c-4 -10 -1 -13 8 -9 8 3 12 9 9 14 -7 12 -11 11 -17 -5z"/>
<path d="M878 2812 c-14 -6 -10 -11 22 -30 31 -17 40 -19 40 -8 0 41 -21 54
-62 38z"/>
<path d="M1726 2755 c4 -8 8 -15 10 -15 2 0 4 7 4 15 0 8 -4 15 -10 15 -5 0
-7 -7 -4 -15z"/>
<path d="M670 2740 c0 -5 7 -10 15 -10 8 0 15 5 15 10 0 6 -7 10 -15 10 -8 0
-15 -4 -15 -10z"/>
<path d="M754 2728 c3 -13 6 -31 6 -40 0 -28 16 -21 38 16 22 37 16 46 -30 46
-16 0 -19 -5 -14 -22z"/>
<path d="M880 2740 c0 -5 5 -10 11 -10 5 0 7 5 4 10 -3 6 -8 10 -11 10 -2 0
-4 -4 -4 -10z"/>
<path d="M921 2661 c-7 -28 -17 -49 -22 -45 -15 9 -10 -25 8 -59 13 -24 18
-58 18 -138 l1 -106 -27 14 c-28 14 -76 78 -96 128 -6 17 -12 49 -12 73 -1 43
-21 61 -21 19 0 -13 -7 -46 -15 -73 l-15 -49 33 -30 c33 -30 124 -142 144
-180 10 -17 12 -13 17 25 3 25 7 90 10 145 2 55 12 135 22 178 17 76 17 78 -3
100 -11 12 -22 28 -25 36 -2 7 -10 -10 -17 -38z m10 -24 c-10 -9 -11 -8 -5 6
3 10 9 15 12 12 3 -3 0 -11 -7 -18z"/>
<path d="M548 2672 c-16 -9 -29 -22 -29 -29 -1 -7 -2 -19 -3 -25 -1 -7 2 -19
7 -25 5 -7 7 -13 3 -13 -9 0 25 -32 59 -56 31 -22 60 -22 49 -1 -4 7 -1 7 7
-1 12 -11 12 -14 0 -21 -11 -7 -9 -11 7 -20 20 -11 21 -10 15 21 -3 18 -9 40
-14 49 -4 9 -9 38 -11 65 -4 71 -35 91 -90 56z"/>
<path d="M882 2670 c0 -14 2 -19 5 -12 2 6 2 18 0 25 -3 6 -5 1 -5 -13z"/>
<path d="M794 2669 c-3 -6 -2 -14 3 -18 5 -3 12 -14 16 -24 6 -15 10 -16 29
-5 13 7 24 14 26 15 2 1 -1 11 -8 22 -12 23 -54 29 -66 10z"/>
<path d="M1331 2624 c0 -11 3 -14 6 -6 3 7 2 16 -1 19 -3 4 -6 -2 -5 -13z"/>
<path d="M1790 2590 c-13 -9 -13 -11 0 -20 15 -10 25 0 18 20 -2 6 -8 6 -18 0z"/>
<path d="M836 2575 c4 -8 7 -15 9 -15 2 0 5 7 9 15 3 9 0 15 -9 15 -9 0 -12
-6 -9 -15z"/>
<path d="M1350 2581 c0 -6 4 -13 10 -16 6 -3 7 1 4 9 -7 18 -14 21 -14 7z"/>
<path d="M1370 2536 c0 -8 5 -18 10 -21 6 -3 10 1 10 9 0 8 -4 18 -10 21 -5 3
-10 -1 -10 -9z"/>
<path d="M730 2524 c0 -10 5 -26 10 -34 8 -11 9 -7 4 15 -8 37 -14 45 -14 19z"/>
<path d="M2392 2488 c-7 -7 -12 -21 -11 -32 0 -20 1 -20 9 2 12 28 36 38 55
22 13 -11 14 -10 9 4 -7 19 -45 21 -62 4z"/>
<path d="M2339 2353 c-8 -2 -22 -19 -31 -38 -13 -30 -13 -34 1 -34 9 -1 37 -4
64 -7 36 -5 47 -3 47 7 0 12 2 12 9 0 14 -21 31 -3 30 32 0 27 -2 29 -9 12 -5
-11 -9 -16 -9 -11 -1 5 -11 -2 -22 -15 l-22 -24 7 27 c10 41 -19 64 -65 51z"/>
<path d="M504 2242 c-5 -4 -9 -13 -8 -19 1 -7 2 -17 3 -23 0 -5 10 -10 20 -10
11 0 23 -4 26 -10 3 -5 11 -10 17 -10 6 0 2 10 -10 23 -12 13 -22 28 -22 35 0
15 -14 22 -26 14z"/>
<path d="M690 2176 c0 -2 7 -9 15 -16 13 -11 14 -10 9 4 -5 14 -24 23 -24 12z"/>
<path d="M981 2126 c-1 -29 2 -37 10 -29 8 8 8 19 1 40 -10 28 -10 28 -11 -11z"/>
<path d="M2569 2143 c-1 -5 -1 -12 0 -16 1 -4 -6 -10 -14 -13 -16 -6 -21 -24
-7 -24 17 0 54 39 47 49 -7 13 -24 15 -26 4z"/>
<path d="M723 2133 c-7 -2 -13 -9 -13 -15 0 -6 7 -5 16 3 15 12 16 11 10 -7
-6 -18 -3 -21 18 -17 24 5 24 5 5 24 -10 10 -20 19 -21 18 -2 0 -9 -3 -15 -6z"/>
<path d="M1635 2115 l-50 -13 50 0 c28 0 66 6 85 13 l35 13 -35 0 c-19 0 -57
-6 -85 -13z"/>
<path d="M1789 2114 c-7 -9 -39 -29 -71 -45 -32 -16 -80 -51 -107 -77 -64 -62
-153 -116 -219 -132 -37 -10 -51 -18 -47 -28 3 -7 5 -20 5 -27 0 -7 12 -27 26
-44 l26 -31 -24 0 c-41 0 -63 -24 -63 -69 0 -22 5 -45 11 -51 6 -6 49 -11 96
-11 83 -1 86 -2 98 -27 l12 -27 11 25 c16 33 30 34 57 5 13 -14 29 -25 36 -25
7 0 14 -4 16 -9 2 -4 22 -10 46 -14 23 -3 40 -1 37 3 -3 5 6 18 21 29 14 11
23 24 20 30 -12 19 7 68 32 85 15 10 19 15 10 12 -10 -3 -18 -1 -18 4 0 10 83
80 95 80 5 0 21 12 37 27 27 25 28 26 47 9 19 -17 20 -17 26 21 9 54 14 65 24
59 5 -3 12 1 15 10 5 13 0 15 -33 9 -43 -7 -87 10 -127 50 -21 21 -22 24 -6
28 10 3 6 5 -10 6 -31 1 -38 25 -12 35 9 4 14 9 11 13 -4 3 -13 1 -20 -6 -11
-9 -17 -8 -27 4 -10 12 -10 15 1 15 8 1 28 7 44 15 29 15 29 15 -27 12 -64 -4
-75 5 -25 20 31 9 31 10 11 21 -18 9 -24 9 -35 -4z m11 -98 c0 -7 -9 -16 -20
-19 -22 -6 -23 -5 -14 17 8 20 34 21 34 2z m-139 -56 c-26 -19 -39 -35 -35
-43 4 -7 2 -7 -7 1 -12 12 -10 16 10 30 14 10 30 22 35 29 6 7 17 12 25 13 8
0 -5 -14 -28 -30z m83 18 c-7 -11 10 -9 46 6 9 4 26 -4 42 -19 15 -14 32 -25
39 -25 15 0 71 -40 87 -62 7 -10 20 -18 28 -18 8 0 14 -4 14 -10 0 -5 -5 -10
-11 -10 -23 0 -149 -60 -149 -71 0 -4 -7 -10 -16 -13 -9 -4 -13 -2 -8 5 4 7
-1 7 -16 -1 -17 -9 -25 -9 -39 4 -16 15 -18 14 -17 -6 1 -17 -5 -23 -23 -24
-22 -1 -23 0 -7 11 18 14 8 28 -16 22 -7 -2 -10 -2 -6 0 5 3 3 14 -3 25 -7 14
-8 18 0 14 11 -7 47 41 38 51 -4 3 3 14 14 24 11 10 22 25 23 33 1 8 11 25 22
37 l19 22 -33 -17 c-18 -9 -30 -21 -27 -26 3 -5 -12 -13 -35 -16 -35 -6 -39
-9 -28 -22 12 -13 10 -14 -9 -1 -21 13 -22 14 -4 24 10 5 16 16 14 23 -4 11
10 17 32 12 6 -1 7 2 3 6 -4 4 0 13 10 20 21 17 25 17 16 2z m-144 -77 c0 -5
-7 -12 -16 -15 -14 -5 -15 -4 -4 9 14 17 20 19 20 6z m74 -49 c6 -10 -76 -90
-112 -110 -23 -13 -42 -9 -42 8 0 13 119 110 135 110 8 0 16 -4 19 -8z"/>
<path d="M1565 1780 c-18 -20 -18 -21 5 -12 13 5 26 14 28 20 6 19 -13 14 -33
-8z"/>
<path d="M3260 2122 c0 -30 82 -63 97 -39 4 6 -2 8 -15 5 -12 -4 -22 -2 -22 4
0 5 -5 6 -11 3 -6 -4 -13 2 -16 14 -5 20 -33 30 -33 13z"/>
<path d="M1530 2084 c-14 -8 -18 -14 -10 -13 8 0 26 6 40 14 14 8 18 14 10 14
-8 -1 -26 -7 -40 -15z"/>
<path d="M824 2005 c-3 -8 -15 -17 -25 -20 -16 -5 -18 -10 -8 -21 6 -8 16 -14
22 -14 6 0 20 -9 31 -19 l21 -20 -3 45 c-4 42 -16 58 -25 32 -2 -7 -2 -3 0 10
4 25 -5 30 -13 7z"/>
<path d="M2577 1958 c8 -84 13 -86 13 -5 0 37 -4 67 -9 67 -5 0 -7 -28 -4 -62z"/>
<path d="M2643 1965 c0 -27 2 -38 4 -22 2 15 2 37 0 50 -2 12 -4 0 -4 -28z"/>
<path d="M2073 1933 c-18 -7 -16 -23 2 -23 8 0 15 7 15 15 0 8 -1 15 -2 14 -2
0 -9 -3 -15 -6z"/>
<path d="M3270 1923 c0 -4 5 -15 10 -23 8 -13 10 -13 10 2 0 9 -4 20 -10 23
-5 3 -10 3 -10 -2z"/>
<path d="M3322 1870 c0 -14 2 -19 5 -12 2 6 2 18 0 25 -3 6 -5 1 -5 -13z"/>
<path d="M2593 1863 c9 -2 23 -2 30 0 6 3 -1 5 -18 5 -16 0 -22 -2 -12 -5z"/>
<path d="M2910 1852 c0 -2 16 -10 35 -18 33 -13 48 -34 25 -34 -5 0 -10 4 -10
8 0 10 -65 42 -83 42 -8 0 -26 -13 -42 -30 l-29 -30 96 0 c92 0 95 1 106 25 7
14 12 30 12 35 0 8 -110 10 -110 2z"/>
<path d="M3281 1814 c0 -11 3 -14 6 -6 3 7 2 16 -1 19 -3 4 -6 -2 -5 -13z"/>
<path d="M10 1775 c-11 -13 -10 -14 4 -9 9 3 16 10 16 15 0 13 -6 11 -20 -6z"/>
<path d="M346 1775 c4 -8 11 -15 16 -15 6 0 5 6 -2 15 -7 8 -14 15 -16 15 -2
0 -1 -7 2 -15z"/>
<path d="M388 1701 c9 -22 20 -35 23 -29 7 11 -21 68 -33 68 -3 0 1 -18 10
-39z"/>
<path d="M172 1694 c-7 -8 -17 -12 -23 -9 -5 4 -9 1 -9 -5 0 -6 -9 -20 -19
-31 -21 -23 -34 -59 -21 -59 8 0 78 81 94 108 10 17 -6 15 -22 -4z"/>
<path d="M450 1670 c-6 -23 -9 -47 -7 -53 2 -6 9 10 16 37 6 27 10 51 7 53 -3
3 -10 -14 -16 -37z"/>
<path d="M274 1675 c3 -21 16 -31 16 -12 0 9 -4 18 -9 21 -5 4 -8 -1 -7 -9z"/>
<path d="M506 1664 c-4 -10 -1 -21 6 -25 16 -10 25 18 10 33 -6 6 -12 3 -16
-8z"/>
<path d="M605 1630 c6 -85 7 -87 15 -55 11 42 11 117 1 90 l-8 -20 -6 20 c-3
11 -4 -5 -2 -35z"/>
<path d="M47 1654 c-5 -5 -16 -9 -25 -9 -14 0 -17 -11 -17 -68 0 -56 2 -64 12
-50 15 19 17 43 5 43 -4 0 -6 16 -4 35 4 30 7 34 19 24 7 -7 10 -15 6 -18 -10
-7 -11 -91 -1 -91 3 0 10 12 15 28 10 32 2 118 -10 106z"/>
<path d="M817 1625 c-23 -49 -21 -57 4 -16 11 18 19 37 17 43 -2 5 -11 -7 -21
-27z"/>
<path d="M2711 1644 c0 -11 3 -14 6 -6 3 7 2 16 -1 19 -3 4 -6 -2 -5 -13z"/>
<path d="M2377 1643 c-13 -12 -7 -54 9 -60 16 -6 68 16 59 26 -3 2 -11 -1 -17
-7 -7 -7 -20 -12 -31 -12 -15 0 -17 6 -13 30 4 31 4 34 -7 23z"/>
<path d="M293 1600 c0 -25 2 -35 4 -22 2 12 2 32 0 45 -2 12 -4 2 -4 -23z"/>
<path d="M3630 1613 c0 -20 -9 -38 -28 -55 -28 -25 -29 -25 -38 -4 -5 12 -16
21 -24 21 -8 0 -17 11 -21 25 -4 18 -8 7 -14 -42 -9 -83 0 -118 19 -73 13 30
13 30 20 7 7 -22 9 -23 27 -6 10 9 19 23 19 30 0 7 14 22 30 34 17 12 30 29
30 38 0 15 2 15 10 2 5 -8 10 -11 10 -7 0 5 -9 20 -20 34 l-20 26 0 -30z m-90
-79 c0 -8 -4 -12 -10 -9 -5 3 -10 10 -10 16 0 5 5 9 10 9 6 0 10 -7 10 -16z"/>
<path d="M510 1561 c0 -34 4 -61 10 -61 6 0 10 9 10 20 0 11 5 20 11 20 6 0 9
-10 7 -23 -2 -13 1 -29 9 -35 7 -7 13 -29 12 -50 0 -30 -2 -33 -9 -17 -8 18
-9 17 -9 -7 -1 -18 -6 -28 -16 -28 -9 0 -15 -9 -15 -22 0 -13 -5 -30 -10 -38
-17 -27 -11 51 9 108 10 28 15 52 11 52 -8 0 -30 -61 -30 -83 0 -26 -30 -20
-31 6 -1 30 -9 81 -14 86 -8 7 -26 -45 -35 -104 l-9 -60 5 55 c2 30 7 86 11
125 l6 69 -26 -17 c-33 -21 -37 -21 -38 1 0 13 -2 14 -6 2 -14 -44 -16 -45
-23 -20 -7 22 -8 20 -10 -15 l-2 -40 -13 30 c-16 33 -18 29 -15 -29 2 -34 0
-38 -13 -28 -7 6 -17 9 -20 5 -4 -3 -7 4 -7 16 0 12 -4 20 -8 17 -5 -3 -7 19
-4 49 5 61 -10 75 -30 28 -10 -25 -12 -26 -15 -8 -4 22 -43 53 -43 34 0 -5 5
-19 11 -31 14 -26 -6 -79 -27 -71 -8 3 -14 0 -14 -7 0 -10 -3 -10 -15 0 -12
10 -15 10 -15 0 0 -8 -3 -11 -6 -8 -3 4 -1 16 6 27 6 12 7 21 2 21 -14 0 -46
-41 -75 -96 -26 -50 -27 -56 -27 -220 l0 -169 31 1 c24 1 35 9 54 40 18 29 24
34 25 19 0 -17 2 -17 10 -5 8 12 12 12 18 2 6 -8 15 1 31 30 21 41 22 41 17
11 l-5 -31 27 26 27 27 3 -27 c3 -23 10 -29 45 -38 23 -6 58 -18 77 -27 19 -9
41 -16 48 -16 10 0 12 -8 8 -26 -3 -14 -9 -64 -12 -111 -5 -70 -3 -100 16
-170 12 -47 31 -101 43 -120 44 -77 57 -101 57 -104 0 -2 -12 -6 -27 -9 -16
-4 -46 -10 -68 -14 -44 -9 -55 -30 -35 -69 12 -21 87 -54 125 -54 8 0 45 -14
82 -30 36 -17 111 -39 166 -50 55 -11 113 -27 129 -34 15 -8 58 -17 95 -21 38
-4 97 -16 133 -27 58 -18 78 -19 175 -12 163 12 287 11 410 -5 61 -7 200 -14
310 -15 110 -1 206 -5 213 -10 7 -4 59 -12 115 -17 56 -5 125 -16 154 -24 29
-9 56 -14 60 -13 4 1 26 -2 48 -6 120 -22 188 -40 255 -68 106 -43 210 -49
300 -18 46 16 69 30 77 47 10 20 8 25 -9 34 -15 8 -17 13 -7 25 9 11 8 14 -5
14 -9 0 -16 5 -16 10 0 6 7 10 15 10 19 0 114 96 132 134 7 17 22 45 32 61 10
17 21 48 25 70 12 60 23 75 57 75 16 0 42 6 57 14 15 7 54 18 87 24 33 6 92
19 130 27 39 9 87 19 108 22 22 3 42 13 48 24 7 14 6 19 -3 19 -7 0 -24 18
-38 40 -13 22 -28 40 -32 40 -4 0 -8 7 -8 15 0 8 9 15 20 15 12 0 20 7 21 18
0 10 3 12 6 5 8 -20 23 -15 23 7 0 23 4 24 31 10 11 -6 35 -8 54 -4 l35 6 0
142 c0 102 -3 137 -11 126 -8 -11 -9 -8 -4 15 12 59 17 231 6 214 -6 -9 -10
-29 -10 -45 1 -50 -9 -155 -15 -161 -3 -4 -7 9 -7 28 -1 19 -2 44 -3 56 -1 13
-5 22 -11 22 -5 0 -9 -11 -8 -25 1 -13 -2 -22 -8 -19 -5 4 -9 -4 -9 -17 -1
-13 -7 -36 -15 -53 l-13 -30 -1 27 c-1 15 -6 39 -12 55 -7 15 -15 46 -19 68
-5 22 -6 -4 -3 -60 3 -55 3 -97 -1 -93 -4 3 -9 33 -10 66 -2 32 -9 68 -15 78
-12 18 -12 18 -8 -3 5 -24 -8 -32 -16 -10 -3 7 -6 5 -6 -5 -1 -22 -31 -24 -31
-3 0 9 -7 18 -15 21 -8 4 -15 16 -16 28 0 20 -1 19 -10 -3 -5 -14 -7 -31 -5
-38 3 -7 -1 -13 -9 -13 -8 0 -15 -8 -16 -17 0 -11 -5 -7 -11 10 -7 21 -7 36 1
53 14 31 15 55 1 34 -8 -12 -10 -9 -10 13 0 26 -1 27 -16 13 -16 -17 -34 -21
-34 -8 1 24 27 91 34 85 4 -4 7 3 6 17 -4 43 0 60 11 60 8 0 10 -14 6 -42 -3
-23 -2 -36 2 -29 7 11 9 11 13 0 3 -8 3 10 0 39 -3 34 -1 52 6 52 11 0 11 4
-3 45 -6 18 -8 17 -23 -10 -17 -31 -19 -36 -21 -57 0 -6 -4 -8 -7 -5 -4 3 -15
2 -25 -3 -12 -7 -25 -44 -44 -127 -32 -140 -36 -152 -42 -136 -8 23 16 155 36
193 15 30 17 38 6 33 -15 -5 -19 5 -16 40 3 29 -11 21 -48 -26 -8 -10 -20 -53
-26 -95 -7 -42 -16 -85 -20 -95 -6 -14 -4 -16 10 -11 15 6 16 3 10 -25 -9 -43
-65 -149 -65 -124 0 10 8 35 19 56 10 20 14 34 9 31 -6 -4 -8 2 -3 15 9 28 -2
58 -21 58 -8 0 -13 -6 -10 -14 3 -8 -3 -24 -14 -35 -11 -12 -20 -31 -20 -42 0
-12 -5 -28 -10 -36 -16 -25 -12 11 9 79 10 33 15 58 10 55 -5 -3 -9 -11 -9
-17 0 -7 -4 -18 -9 -26 -8 -12 -12 -12 -25 -2 -14 12 -16 10 -16 -8 0 -12 -6
-21 -15 -21 -8 0 -15 -6 -15 -14 0 -8 -7 -16 -15 -20 -8 -3 -15 -12 -15 -19 0
-8 -7 -20 -15 -27 -19 -16 -19 -9 2 34 9 19 20 33 24 31 3 -3 7 1 6 8 0 6 1
21 2 32 1 16 3 17 11 5 5 -8 12 -11 16 -7 4 4 3 12 -4 19 -6 6 -9 25 -6 42 5
30 5 30 -10 12 -9 -11 -16 -28 -16 -37 0 -10 -3 -25 -6 -34 -5 -13 -9 -14 -15
-4 -5 8 -15 -5 -30 -39 -12 -28 -24 -50 -26 -49 -4 4 41 143 61 190 9 20 13
37 10 37 -4 0 -2 6 3 13 18 22 24 49 11 45 -7 -3 -13 -9 -13 -15 0 -5 -13 -33
-29 -62 -18 -35 -31 -49 -36 -41 -6 9 -9 9 -13 -1 -4 -10 -6 -8 -6 4 -1 10 6
32 15 48 8 17 13 34 9 37 -3 3 -8 -4 -12 -16 -3 -12 -9 -20 -13 -17 -4 3 -11
-7 -15 -22 -3 -15 -15 -46 -26 -70 -10 -23 -19 -52 -20 -65 -1 -17 -3 -14 -11
12 -23 85 -26 100 -17 94 12 -7 12 9 0 38 -5 13 -13 32 -17 43 -6 19 -7 18
-14 -5 -7 -24 -8 -24 -16 -5 -5 11 -19 21 -31 22 -21 3 -23 -1 -23 -51 0 -68
-16 -117 -37 -109 -12 5 -12 7 -1 14 10 7 10 9 1 9 -7 0 -13 10 -13 23 0 35
-31 118 -41 111 -5 -3 -9 -18 -9 -35 0 -16 -4 -29 -8 -29 -5 0 -7 15 -5 33 2
28 2 29 -5 7 -5 -14 -12 -40 -15 -59 -6 -30 -5 -32 10 -20 15 13 16 11 10 -11
-4 -14 -7 -28 -7 -32 0 -5 -9 -8 -20 -8 -15 0 -20 7 -20 28 0 19 -3 23 -9 13
-7 -11 -9 -11 -14 0 -4 10 -6 8 -6 -4 -1 -11 -7 -17 -13 -14 -7 2 -12 9 -11
13 1 5 4 23 8 39 6 29 6 29 -8 7 -12 -21 -15 -22 -26 -8 -7 9 -17 13 -22 11
-11 -8 6 -51 20 -48 6 2 8 -3 5 -11 -3 -8 -1 -17 5 -21 21 -12 11 -23 -29 -30
-22 -4 -40 -7 -40 -8 0 -1 7 -20 14 -42 11 -29 19 -39 33 -37 10 2 58 6 106 9
112 7 186 -13 278 -74 102 -67 150 -130 185 -242 19 -61 30 -196 17 -204 -6
-4 -12 26 -16 81 -12 193 -101 320 -277 396 -73 32 -171 43 -235 28 -31 -8
-34 -10 -14 -11 29 -1 34 -11 64 -111 8 -30 20 -69 25 -86 6 -16 14 -51 19
-77 7 -40 6 -47 -8 -47 -17 0 -59 91 -108 238 -15 45 -31 82 -35 82 -17 0 -6
-67 23 -149 66 -181 72 -192 97 -188 12 2 22 0 22 -4 0 -5 7 -6 15 -3 8 4 22
3 31 0 13 -5 14 -9 5 -20 -9 -11 -8 -14 5 -12 10 0 18 -8 20 -21 3 -16 -1 -23
-12 -23 -13 0 -14 -3 -5 -14 16 -19 -10 -41 -29 -23 -10 10 -12 9 -7 -5 5 -13
1 -18 -13 -18 -24 0 -35 16 -15 24 8 3 15 11 14 18 0 9 -2 10 -5 1 -3 -7 -12
-9 -21 -6 -11 4 -14 2 -9 -5 4 -7 0 -15 -9 -18 -22 -9 -29 1 -16 25 11 20 10
20 -31 -2 -24 -12 -45 -25 -48 -28 -9 -9 -184 -115 -204 -122 -10 -4 -25 -2
-32 4 -16 13 -19 -2 -3 -18 7 -7 7 -13 1 -17 -6 -3 -20 7 -32 24 -15 21 -17
30 -8 30 8 0 9 3 2 8 -30 21 -53 197 -28 222 10 10 77 -1 244 -40 47 -11 89
-20 93 -20 5 0 6 -4 2 -9 -3 -5 -1 -12 5 -16 5 -3 10 1 10 9 0 9 4 16 10 16
17 0 -1 28 -22 33 -11 3 -17 10 -14 16 4 6 -10 43 -29 83 -20 40 -43 91 -51
114 -7 23 -22 59 -31 80 -10 21 -18 44 -18 49 -1 6 -8 29 -15 53 -11 35 -17
41 -32 36 -17 -5 -18 -3 -9 14 8 15 8 41 1 89 -14 96 -15 93 28 93 21 0 47 7
58 15 21 16 12 20 -15 6 -10 -6 -23 -6 -31 -1 -11 7 -8 11 13 19 15 6 32 8 39
6 9 -4 13 6 13 29 0 31 -2 33 -23 23 -17 -8 -19 -13 -10 -19 8 -5 -4 -6 -27
-2 -22 4 -46 11 -52 17 -10 7 -13 3 -14 -14 -1 -20 -2 -18 -10 9 -5 17 -12 32
-14 32 -7 0 5 -78 16 -107 6 -16 5 -23 -3 -23 -6 0 -9 -3 -6 -6 4 -3 -5 -30
-18 -60 -13 -30 -25 -62 -25 -72 -1 -9 -7 6 -14 33 -7 28 -10 62 -8 77 3 14 0
34 -6 45 -9 15 -10 12 -11 -19 0 -20 -4 -48 -10 -62 -9 -26 3 -38 14 -13 3 6
3 -8 0 -33 -4 -25 -6 -54 -6 -65 1 -14 -1 -16 -7 -7 -6 10 -18 -3 -40 -42 -36
-64 -47 -73 -24 -18 21 50 43 152 32 152 -5 0 -9 -6 -9 -12 0 -10 -3 -9 -9 1
-11 17 -26 -8 -36 -61 -4 -21 -13 -42 -21 -49 -20 -16 -18 -1 6 68 24 69 26
90 4 46 -17 -34 -42 -47 -29 -15 15 35 16 56 1 24 -8 -17 -20 -32 -26 -32 -8
0 -7 6 1 21 7 15 8 24 0 32 -6 6 -8 29 -4 55 8 55 -11 51 -23 -5 -15 -74 -23
-93 -40 -93 -8 0 -14 -4 -14 -9 0 -16 -31 -83 -36 -78 -5 5 29 113 51 162 7
17 17 42 20 58 6 22 4 26 -8 21 -8 -3 -18 -17 -22 -32 -4 -15 -10 -21 -12 -14
-7 19 -23 14 -23 -7 0 -11 -4 -22 -9 -26 -5 -3 -9 8 -9 25 1 17 -2 33 -5 37
-4 3 -7 -4 -7 -17 0 -13 -6 -31 -14 -39 -8 -9 -23 -45 -34 -81 l-21 -65 -2 40
c-2 22 -4 51 -5 65 -1 14 -2 36 -3 49 -1 25 -1 25 -36 -9 -19 -19 -35 -40 -35
-47 0 -7 -6 -10 -13 -7 -21 8 -187 -121 -187 -145 0 -13 -48 -46 -56 -38 -3 2
4 20 15 38 24 39 26 49 8 49 -14 0 -77 -66 -70 -74 3 -3 -19 -28 -48 -55 -37
-35 -49 -50 -36 -51 9 0 17 4 17 8 0 5 7 17 16 28 15 19 16 19 9 0 -6 -19 -5
-19 14 -2 11 10 18 23 14 29 -3 5 -1 7 4 4 6 -4 13 -1 16 7 4 9 14 12 27 9 16
-4 18 -8 9 -19 -6 -8 -15 -12 -19 -9 -10 6 -60 -52 -60 -68 0 -7 9 2 19 19 19
31 41 52 41 39 0 -3 -7 -19 -15 -35 -9 -17 -11 -30 -5 -30 5 0 10 6 10 13 0 7
15 28 34 46 33 32 36 33 71 21 42 -14 63 -47 47 -76 -9 -18 -6 -19 39 -16 29
2 56 -1 64 -8 8 -6 40 -14 72 -16 70 -6 70 -6 111 2 30 6 74 -6 133 -36 9 -5
26 -6 38 -3 20 5 21 5 5 -43 -41 -128 -23 -340 38 -438 16 -27 34 -60 39 -74
9 -25 9 -25 -8 -10 -17 15 -151 47 -303 73 -140 24 -324 36 -570 39 -135 1
-265 6 -289 11 l-44 8 38 23 c66 39 125 106 165 186 21 42 40 74 43 71 3 -3 3
5 0 16 -4 18 -2 20 13 14 16 -6 17 -4 6 9 -9 11 -10 23 -2 42 5 15 10 54 10
86 0 53 2 59 23 63 l22 4 -22 2 c-17 1 -23 7 -23 25 0 14 5 28 10 31 18 11 10
34 -12 37 -13 2 -24 11 -26 21 -3 13 3 17 25 17 54 0 73 13 122 79 26 36 63
82 81 101 18 19 52 64 76 100 45 70 91 121 130 147 29 19 23 27 -28 41 l-37
10 6 -29 c5 -24 -1 -36 -35 -73 -22 -24 -52 -62 -67 -85 -15 -22 -32 -41 -36
-41 -5 0 -9 -9 -9 -19 0 -11 -13 -33 -30 -49 -33 -33 -43 -28 -55 26 -5 26
-10 31 -18 23 -9 -9 -9 -14 1 -20 9 -5 12 -23 9 -52 -3 -36 -8 -45 -25 -47
-25 -4 -27 12 -13 86 5 23 4 42 0 42 -5 0 -9 -9 -9 -20 0 -11 -6 -20 -14 -20
-13 0 -26 -26 -41 -77 -3 -13 -11 -23 -16 -23 -12 0 -12 0 6 50 8 23 14 52 14
64 -1 15 -3 13 -8 -8 -3 -16 -12 -31 -19 -34 -11 -3 -12 0 -2 17 6 12 10 30 8
39 -2 10 -12 -6 -23 -35 -10 -29 -22 -53 -27 -53 -4 0 -4 -8 -1 -17 6 -16 5
-16 -8 -3 -9 8 -20 23 -25 32 -9 16 -13 15 -51 -8 l-42 -25 24 -35 c51 -75 68
-141 69 -259 1 -107 0 -112 -37 -190 -39 -81 -99 -155 -149 -181 -40 -21 -34
-3 10 31 20 15 46 40 56 54 17 23 16 23 -15 -5 -19 -17 -47 -41 -64 -53 l-29
-22 -23 43 c-12 24 -29 59 -38 78 -9 19 -22 47 -31 63 -8 15 -13 27 -10 27 3
0 -6 16 -19 36 -28 41 -30 50 -15 59 6 3 10 -1 10 -9 0 -10 6 -13 16 -9 13 5
13 7 2 14 -9 6 -6 9 12 10 34 3 42 4 68 13 13 4 26 5 29 2 4 -3 -8 -11 -26
-17 -18 -6 -30 -13 -28 -16 3 -2 24 3 48 11 50 18 71 20 49 6 -11 -7 -8 -9 15
-9 17 0 49 -3 73 -7 l43 -6 -6 -55 c-2 -31 -10 -62 -16 -69 -7 -9 -7 -14 -1
-14 5 0 20 28 32 63 13 34 26 67 30 72 3 6 3 24 0 40 l-7 30 -11 -27 c-10 -25
-14 -27 -37 -16 -19 8 -22 14 -13 20 8 5 -3 6 -26 2 -28 -5 -37 -4 -32 5 4 6
2 11 -5 11 -7 0 -9 3 -6 6 4 4 14 1 24 -7 14 -12 16 -12 8 0 -6 11 -2 13 18 9
15 -3 24 -2 22 2 -8 13 46 22 60 10 11 -9 13 -4 9 27 -11 96 -71 241 -100 243
-6 0 -18 -7 -25 -16 -7 -9 -40 -34 -74 -57 -49 -33 -99 -71 -178 -137 -4 -4
-1 -7 8 -7 8 0 15 4 15 8 0 3 10 9 23 12 12 3 75 19 141 36 139 36 152 37 159
11 4 -15 0 -20 -16 -20 -25 0 -119 -21 -247 -56 -127 -34 -150 -37 -150 -19 0
8 5 15 11 15 5 0 8 4 4 10 -3 5 7 16 22 24 15 8 44 29 63 46 19 18 63 57 96
88 34 31 61 61 60 66 -2 6 -1 8 1 4 8 -13 22 -9 43 12 19 19 19 19 -18 48 -44
35 -149 86 -202 98 -66 16 -207 -4 -272 -37 -21 -11 -38 -16 -38 -11 0 8 13
15 70 40 37 16 125 32 174 32 85 0 195 -47 310 -133 17 -13 94 64 110 111 13
36 13 40 0 35 -9 -3 -20 -17 -26 -32 -6 -16 -12 -21 -15 -13 -4 10 -9 8 -20
-5 -13 -17 -14 -16 -9 7 3 14 1 32 -4 40 -8 12 -10 10 -10 -7 0 -13 -6 -23
-14 -23 -18 0 -29 16 -32 48 -4 31 -14 41 -15 16 -1 -10 -1 -22 0 -26 0 -5 -3
-8 -9 -8 -8 0 -30 60 -30 83 0 5 -7 15 -15 24 -14 14 -15 13 -10 -8 4 -17 0
-27 -14 -36 -18 -11 -19 -9 -20 43 0 38 -6 60 -18 72 -16 16 -16 16 -10 -2 4
-10 2 -24 -4 -32 -7 -9 -7 -18 0 -33 6 -11 11 -28 11 -39 0 -19 -2 -19 -64 -3
-48 12 -62 19 -59 31 4 12 2 12 -6 -1 -13 -20 -111 -26 -111 -6 -1 6 -9 2 -19
-10 -11 -13 -29 -23 -41 -23 -17 0 -20 4 -16 23 6 22 6 22 -5 1 -10 -19 -59
-51 -59 -39 0 2 9 28 20 56 12 29 19 59 17 68 -4 13 -5 13 -6 -1 0 -10 -5 -18
-10 -18 -5 0 -11 8 -13 18 -3 12 -7 8 -18 -15 -17 -39 -35 -44 -26 -9 3 14 2
28 -4 31 -5 3 -10 -2 -10 -12 0 -10 -7 -28 -15 -40 -8 -12 -21 -45 -29 -75
-13 -52 -13 -53 -20 -21 -4 17 -7 47 -7 65 -1 48 -30 168 -40 162 -5 -3 -9
-11 -9 -18 0 -8 -9 -16 -21 -19 -15 -4 -19 -2 -15 9 3 9 -1 22 -9 30 -13 14
-15 9 -15 -45z m-279 -37 c-5 -16 -10 -21 -10 -12 -1 18 10 51 15 45 2 -1 -1
-16 -5 -33z m349 21 c0 -8 -4 -15 -10 -15 -5 0 -10 7 -10 15 0 8 5 15 10 15 6
0 10 -7 10 -15z m-170 -16 c0 -11 -4 -18 -10 -14 -5 3 -7 12 -3 20 7 21 13 19
13 -6z m177 -56 c-3 -10 -5 -2 -5 17 0 19 2 27 5 18 2 -10 2 -26 0 -35z m-411
-24 l-15 -34 -1 33 c0 18 6 39 13 46 19 21 20 -4 3 -45z m188 -41 c-3 -51 -8
-95 -10 -97 -2 -2 -4 39 -4 92 0 55 4 97 10 97 5 0 7 -36 4 -92z m-217 60 c-3
-8 -6 -5 -6 6 -1 11 2 17 5 13 3 -3 4 -12 1 -19z m83 -48 c11 -9 20 -40 11
-40 -5 0 -15 7 -22 16 -12 15 -14 14 -20 -7 -6 -20 -5 27 1 76 1 6 7 -1 13
-15 6 -14 14 -27 17 -30z m106 3 c-3 -21 -6 -51 -7 -68 -1 -29 -1 -30 -9 -5
-7 22 -8 20 -9 -14 -1 -50 -16 -37 -25 21 -5 36 -3 45 14 55 11 7 20 21 20 30
0 10 5 18 11 18 8 0 10 -13 5 -37z m354 -22 c-6 -22 -15 -43 -20 -46 -5 -3 -3
16 5 42 8 26 15 53 16 58 0 6 3 5 5 -2 3 -6 0 -30 -6 -52z m-568 -8 c-6 -26
-14 -84 -17 -128 -7 -88 -14 -130 -20 -123 -8 8 14 232 26 271 17 51 23 39 11
-20z m145 25 c-3 -8 -6 -5 -6 6 -1 11 2 17 5 13 3 -3 4 -12 1 -19z m926 -28
c3 -11 1 -20 -4 -20 -5 0 -9 9 -9 20 0 11 2 20 4 20 2 0 6 -9 9 -20z m-612
-23 c-10 -9 -11 -8 -5 6 3 10 9 15 12 12 3 -3 0 -11 -7 -18z m3054 -24 c-6
-37 -20 -61 -29 -52 -3 3 0 24 6 47 13 53 33 57 23 5z m-3038 -25 c-3 -8 -6
-5 -6 6 -1 11 2 17 5 13 3 -3 4 -12 1 -19z m351 -33 c-6 -14 -15 -25 -19 -25
-4 0 -11 -9 -14 -21 -4 -11 -9 -18 -12 -16 -7 7 36 87 47 87 6 0 5 -10 -2 -25z
m2102 0 c0 -8 -4 -17 -10 -20 -6 -4 -10 5 -10 20 0 15 4 24 10 20 6 -3 10 -12
10 -20z m-2543 -27 c-3 -7 -5 -2 -5 12 0 14 2 19 5 13 2 -7 2 -19 0 -25z m589
18 c3 -8 4 -23 2 -33 -3 -13 -7 -9 -15 15 -12 31 1 48 13 18z m1993 -23 c0
-25 -1 -26 -9 -8 -12 27 -12 35 0 35 6 0 10 -12 9 -27z m-2379 3 c0 -2 -18
-18 -40 -34 -64 -47 -128 -149 -159 -252 -10 -34 -10 -34 -5 10 7 57 72 169
135 232 41 41 69 59 69 44z m1876 -52 c-4 -14 -9 -24 -12 -21 -3 2 -2 17 2 31
3 15 9 25 11 22 3 -3 2 -17 -1 -32z m466 -14 c-2 -22 -8 -40 -13 -40 -14 0
-11 68 4 73 6 3 12 6 12 6 0 1 -1 -17 -3 -39z m559 3 c-12 -20 -14 -14 -5 12
4 9 9 14 11 11 3 -2 0 -13 -6 -23z m-420 -24 c-9 -22 -10 -22 -10 -3 -1 11 2
24 6 27 12 12 14 0 4 -24z m-1151 6 c0 -9 -9 -15 -22 -15 -21 0 -21 0 -2 15
24 18 24 18 24 0z m240 -45 c5 0 11 8 13 18 4 13 5 13 6 -4 0 -12 -6 -27 -14
-34 -8 -7 -15 -22 -15 -33 0 -15 -3 -18 -11 -10 -7 7 -8 17 -1 30 6 10 9 29 7
43 -1 14 0 17 2 8 2 -10 8 -18 13 -18z m1281 -21 c-5 -13 -10 -19 -10 -12 -1
15 10 45 15 40 3 -2 0 -15 -5 -28z m223 -9 c9 -22 16 -53 15 -68 0 -18 -5 -9
-15 28 -8 30 -19 57 -24 58 -12 5 -13 22 -1 22 5 0 16 -18 25 -40z m-2827 8
c-3 -8 -6 -5 -6 6 -1 11 2 17 5 13 3 -3 4 -12 1 -19z m2750 -10 c-3 -8 -6 -5
-6 6 -1 11 2 17 5 13 3 -3 4 -12 1 -19z m234 -5 c-12 -20 -14 -14 -5 12 4 9 9
14 11 11 3 -2 0 -13 -6 -23z m-295 -51 c-11 -10 -14 3 -8 33 l7 30 3 -28 c2
-16 1 -31 -2 -35z m-1549 -29 c-2 -16 -4 -3 -4 27 0 30 2 43 4 28 2 -16 2 -40
0 -55z m400 45 c-3 -8 -6 -5 -6 6 -1 11 2 17 5 13 3 -3 4 -12 1 -19z m1050 0
c-3 -8 -6 -5 -6 6 -1 11 2 17 5 13 3 -3 4 -12 1 -19z m203 1 c0 -4 -9 -13 -20
-19 -17 -9 -20 -8 -20 14 0 19 4 23 20 19 11 -3 20 -9 20 -14z m-3126 -50 c-3
-5 -2 -9 3 -9 4 0 43 -3 86 -5 60 -4 79 -2 83 8 3 8 14 12 27 10 29 -6 74 -40
65 -49 -4 -4 -14 -2 -22 5 -11 9 -15 8 -19 -3 -4 -11 -1 -13 10 -9 11 4 14 2
11 -8 -6 -18 -39 -24 -48 -9 -4 7 -34 13 -66 15 -33 1 -81 9 -109 18 -27 9
-63 19 -78 22 -39 8 -27 20 22 21 22 1 38 -2 35 -7z m3290 -38 c-4 -17 -9 -30
-11 -27 -3 2 -2 19 2 36 9 41 17 33 9 -9z m-1514 21 c0 -5 -7 -17 -16 -28 -8
-10 -14 -14 -11 -9 2 6 7 18 10 28 7 17 17 23 17 9z m237 -9 c-9 -10 -31 -27
-49 -37 -32 -18 -32 -18 7 17 41 37 71 51 42 20z m-2035 -30 c7 -5 33 -10 56
-11 24 0 50 -6 57 -12 7 -5 31 -11 54 -13 23 -1 41 -7 41 -14 0 -6 8 -9 19 -6
29 7 37 -37 9 -60 -17 -14 -23 -15 -31 -5 -6 9 -7 8 -3 -5 4 -11 -1 -20 -12
-24 -9 -4 -61 -36 -114 -71 -54 -35 -102 -61 -107 -57 -29 17 -57 198 -40 254
10 32 16 39 35 36 13 -1 29 -7 36 -12z m-94 -82 c0 -35 12 -92 29 -142 25 -77
33 -90 100 -157 43 -43 61 -66 45 -58 -29 15 -83 71 -121 124 -39 56 -86 264
-64 285 10 11 10 10 11 -52z m2020 2 c-9 -10 -30 -45 -47 -78 -21 -39 -30 -50
-26 -31 7 34 73 141 82 132 3 -3 -1 -14 -9 -23z m-1612 -95 c-1 -18 -15 -95
-31 -171 l-29 -138 -34 6 c-34 6 -108 42 -136 66 -76 66 -105 105 -89 119 4 4
28 19 53 33 60 33 136 78 168 99 69 45 101 40 98 -14z m54 8 c0 -6 5 -4 10 4
12 19 18 11 102 -135 104 -182 99 -170 67 -189 -15 -9 -40 -16 -56 -15 l-28 1
26 7 c36 11 72 32 66 38 -3 2 -14 0 -26 -6 -11 -6 -44 -18 -73 -25 -44 -12
-48 -15 -23 -17 l30 -1 -30 -8 c-44 -11 -175 -12 -175 0 0 5 28 8 68 5 l67 -4
-62 11 c-71 12 -71 12 -49 98 7 30 24 98 36 151 15 63 28 96 36 96 8 0 14 -5
14 -11z m1563 0 c12 4 17 1 17 -12 0 -16 2 -16 10 -4 7 12 15 12 42 4 18 -6
52 -17 76 -24 42 -13 58 -39 25 -41 -10 0 -2 -7 17 -15 34 -13 34 -14 5 -9
-16 2 -48 7 -70 10 -87 14 -185 37 -185 45 0 5 7 15 15 24 8 8 15 21 15 28 0
10 2 11 8 0 5 -7 16 -10 25 -6z m-80 -86 c-3 -11 -7 -20 -9 -20 -2 0 -4 9 -4
20 0 11 4 20 9 20 5 0 7 -9 4 -20z m-8 -96 c3 -60 30 -170 47 -191 5 -7 5 -13
0 -17 -5 -3 -17 20 -27 52 -9 31 -21 70 -26 86 -10 31 -13 143 -3 134 3 -3 7
-32 9 -64z m598 -22 c-13 -2 -23 -7 -23 -11 0 -5 12 -6 26 -3 19 3 25 1 20 -7
-11 -18 13 -41 43 -41 14 1 52 -2 83 -5 31 -3 68 -1 82 5 23 8 26 7 27 -13 l0
-22 9 23 c5 12 14 22 20 22 14 0 13 0 -14 -74 -52 -138 -145 -230 -262 -261
-64 -17 -102 -19 -69 -5 14 6 15 9 5 10 -12 0 -12 3 3 14 22 17 12 50 -14 43
-13 -4 -19 0 -19 11 -1 12 -5 9 -15 -8 -7 -14 -26 -28 -42 -31 -24 -6 -21 -7
17 -9 l45 -2 -40 -8 c-53 -10 -89 3 -80 30 4 11 2 20 -4 20 -6 0 -11 -9 -11
-20 0 -11 -5 -20 -11 -20 -7 0 -8 7 -4 18 3 9 9 31 12 47 3 17 10 35 15 41 4
6 10 41 13 77 4 61 20 107 37 107 5 0 8 5 8 11 0 5 -4 7 -10 4 -5 -3 -10 0
-10 8 0 30 45 15 73 -25 16 -22 23 -37 18 -33 -6 3 -11 1 -11 -4 0 -6 7 -11
15 -11 9 0 15 -9 15 -21 0 -11 9 -34 20 -49 19 -27 20 -29 3 -40 -16 -10 -15
-11 5 -6 17 3 22 1 18 -10 -3 -8 0 -13 7 -11 7 1 11 -6 11 -15 -1 -10 2 -16 6
-13 4 2 12 -7 19 -21 15 -33 14 -43 -3 -21 -12 16 -14 16 -20 2 -3 -10 -11
-13 -18 -9 -9 6 -9 3 1 -9 12 -15 10 -18 -10 -27 -26 -11 -25 -11 64 7 15 3
27 11 27 18 0 8 8 16 18 19 22 7 87 68 101 95 18 32 13 35 -11 6 -74 -90 -111
-107 -133 -65 -20 38 -20 67 -2 51 17 -14 27 -4 27 25 0 12 5 25 10 27 6 3 5
4 -2 3 -7 -1 -14 -12 -16 -24 -4 -26 -22 -30 -22 -4 0 15 -2 15 -11 2 -8 -11
-12 -12 -16 -2 -2 7 -11 19 -20 27 -8 8 -11 15 -6 15 4 0 1 6 -8 13 -25 19
-31 51 -14 73 8 10 14 26 14 34 1 8 -7 0 -16 -18 l-16 -33 -20 41 c-20 39 -20
40 -2 58 14 12 29 16 54 13 26 -4 30 -6 14 -9z m-188 -77 c-4 -22 -11 -44 -16
-49 -5 -6 -9 -24 -9 -42 0 -17 -7 -51 -15 -74 -8 -23 -15 -55 -15 -71 0 -31
-15 -45 -33 -31 -7 5 -24 12 -39 16 -22 5 -26 3 -22 -9 5 -11 -8 -7 -39 12
-25 15 -43 31 -40 35 2 4 -3 5 -11 2 -26 -10 -19 -18 43 -54 33 -19 58 -37 56
-39 -16 -15 -215 145 -215 174 0 5 20 -12 44 -40 25 -28 48 -46 53 -41 4 5 2
11 -4 13 -7 3 -13 9 -13 15 0 6 -8 17 -17 24 -10 7 -15 15 -12 19 4 3 13 -1
21 -8 15 -15 58 -16 91 -2 9 4 25 4 35 -1 14 -6 11 -9 -13 -12 -16 -2 -33 -9
-37 -15 -6 -9 -11 -8 -18 3 -7 11 -12 12 -21 3 -8 -8 -3 -13 23 -18 18 -3 42
-9 53 -11 17 -5 18 -3 5 6 -13 10 -12 11 6 7 18 -4 20 0 18 45 l-1 50 36 -6
c34 -6 35 -5 17 9 -24 19 -55 19 -79 1 -18 -14 -18 -14 0 -19 15 -4 15 -5 -3
-6 -12 0 -24 5 -27 13 -6 15 22 46 41 46 7 0 12 4 12 8 0 20 -14 18 -53 -7
-23 -15 -51 -31 -62 -34 -17 -6 -17 -4 4 13 13 11 29 20 37 20 7 0 17 6 21 13
4 7 37 31 73 52 36 21 66 43 68 47 2 4 13 3 25 -4 21 -11 21 -10 7 8 -14 18
-14 18 8 -1 20 -16 22 -25 17 -60z m-2110 -14 c3 -5 28 -17 56 -26 28 -9 48
-19 46 -21 -6 -7 -115 35 -122 47 -4 5 -2 9 4 9 5 0 12 -4 16 -9z m1888 -78
c-18 -7 -16 -23 2 -23 8 0 15 -7 15 -15 0 -17 -16 -20 -25 -5 -5 8 -12 7 -22
-2 -12 -10 -17 -9 -27 4 -9 12 -16 14 -30 6 -16 -9 -17 -8 -6 12 9 16 15 19
23 11 13 -13 51 -15 43 -2 -6 9 10 19 29 19 6 0 4 -2 -2 -5z m437 -173 c0 -5
-5 -10 -11 -10 -5 0 -7 5 -4 10 3 6 8 10 11 10 2 0 4 -4 4 -10z m-315 -10 c3
-5 1 -10 -4 -10 -6 0 -11 5 -11 10 0 6 2 10 4 10 3 0 8 -4 11 -10z m15 -40 c0
-5 -4 -10 -9 -10 -6 0 -13 5 -16 10 -3 6 1 10 9 10 9 0 16 -4 16 -10z m180
-14 c8 -2 -22 -4 -67 -5 -46 0 -83 3 -83 7 0 7 114 5 150 -2z"/>
<path d="M650 926 c0 -2 9 -6 20 -9 11 -3 18 -1 14 4 -5 9 -34 13 -34 5z"/>
<path d="M768 893 c6 -2 18 -2 25 0 6 3 1 5 -13 5 -14 0 -19 -2 -12 -5z"/>
<path d="M880 799 c0 -5 5 -7 10 -4 6 3 10 8 10 11 0 2 -4 4 -10 4 -5 0 -10
-5 -10 -11z"/>
<path d="M2991 534 c0 -11 3 -14 6 -6 3 7 2 16 -1 19 -3 4 -6 -2 -5 -13z"/>
<path d="M3026 483 c-6 -14 -5 -15 5 -6 7 7 10 15 7 18 -3 3 -9 -2 -12 -12z"/>
<path d="M3286 475 c4 -9 -1 -24 -11 -35 -9 -10 -15 -27 -13 -37 3 -14 7 -12
21 14 19 36 22 59 7 68 -6 3 -7 -1 -4 -10z"/>
<path d="M2967 420 c-7 -27 -1 -39 12 -24 5 5 5 18 2 28 -7 18 -8 18 -14 -4z"/>
<path d="M2864 379 c-1 -22 -7 -46 -13 -52 -6 -6 -10 -22 -10 -36 1 -24 2 -24
8 4 4 17 12 29 18 28 6 -1 9 16 8 42 -1 57 -10 66 -11 14z"/>
<path d="M3225 389 c-4 -6 -5 -12 -2 -15 2 -3 7 2 10 11 7 17 1 20 -8 4z"/>
<path d="M2965 370 c-3 -5 3 -10 14 -10 12 0 21 5 21 10 0 6 -6 10 -14 10 -8
0 -18 -4 -21 -10z"/>
<path d="M2951 304 c0 -11 3 -14 6 -6 3 7 2 16 -1 19 -3 4 -6 -2 -5 -13z"/>
<path d="M2865 288 c-4 -14 -5 -35 -2 -45 3 -11 5 -8 6 11 l1 28 19 -23 c24
-30 33 -22 25 20 -5 24 -10 29 -19 21 -9 -8 -14 -7 -18 2 -2 7 -8 1 -12 -14z"/>
<path d="M2830 531 c0 -5 5 -13 10 -16 6 -3 10 -2 10 4 0 5 -4 13 -10 16 -5 3
-10 2 -10 -4z"/>
<path d="M2811 484 c0 -11 3 -14 6 -6 3 7 2 16 -1 19 -3 4 -6 -2 -5 -13z"/>
<path d="M2720 460 c0 -5 5 -10 10 -10 6 0 10 5 10 10 0 6 -4 10 -10 10 -5 0
-10 -4 -10 -10z"/>
<path d="M2776 441 c-3 -5 3 -11 14 -14 11 -3 20 -9 19 -14 -3 -19 1 -46 7
-40 12 11 -6 77 -21 77 -8 0 -16 -4 -19 -9z"/>
<path d="M2768 313 c6 -2 18 -2 25 0 6 3 1 5 -13 5 -14 0 -19 -2 -12 -5z"/>
<path d="M2311 1580 c1 -19 3 -27 6 -17 3 13 11 17 24 14 16 -4 18 -3 9 8 -7
8 -9 18 -7 22 3 5 -3 9 -14 9 -15 0 -19 -7 -18 -36z"/>
<path d="M2712 1595 c0 -16 2 -22 5 -12 2 9 2 23 0 30 -3 6 -5 -1 -5 -18z"/>
<path d="M1302 1575 c0 -16 2 -22 5 -12 2 9 2 23 0 30 -3 6 -5 -1 -5 -18z"/>
<path d="M2558 1593 c6 -2 18 -2 25 0 6 3 1 5 -13 5 -14 0 -19 -2 -12 -5z"/>
<path d="M3363 1545 c0 -33 2 -45 4 -27 2 18 2 45 0 60 -2 15 -4 0 -4 -33z"/>
<path d="M730 1572 c0 -11 -4 -24 -10 -27 -13 -8 -13 -25 -1 -25 11 0 26 59
17 67 -3 4 -6 -3 -6 -15z"/>
<path d="M2223 1575 c-17 -7 -23 -17 -22 -40 l2 -30 4 28 c4 22 9 27 31 27
l27 -1 -24 -19 c-26 -22 -15 -27 14 -6 16 11 16 15 4 32 -11 16 -18 17 -36 9z"/>
<path d="M681 1564 c0 -11 3 -14 6 -6 3 7 2 16 -1 19 -3 4 -6 -2 -5 -13z"/>
<path d="M136 1561 c-4 -7 -5 -15 -2 -18 9 -9 19 4 14 18 -4 11 -6 11 -12 0z"/>
<path d="M1220 1554 c0 -12 38 -53 44 -47 9 10 7 25 -3 19 -5 -3 -11 3 -14 14
-5 18 -27 29 -27 14z"/>
<path d="M1001 1539 c0 -9 6 -22 14 -29 10 -9 15 -9 15 -1 0 6 -4 11 -9 11 -5
0 -12 8 -14 18 -4 14 -5 14 -6 1z"/>
<path d="M1591 1543 c0 -4 4 -17 9 -28 8 -19 9 -19 9 2 1 12 -3 25 -9 28 -5 3
-10 3 -9 -2z"/>
<path d="M3443 1536 c4 -10 -3 -25 -17 -38 -13 -13 -27 -39 -30 -58 -3 -19 -3
-28 1 -20 3 8 9 17 12 20 4 3 21 23 38 46 31 40 31 40 11 53 -18 11 -20 11
-15 -3z"/>
<path d="M626 1532 c-2 -4 -1 -14 5 -22 7 -12 9 -10 9 8 0 23 -5 28 -14 14z"/>
<path d="M481 1514 c0 -11 3 -14 6 -6 3 7 2 16 -1 19 -3 4 -6 -2 -5 -13z"/>
<path d="M1067 1520 c-11 -32 -17 -71 -12 -80 8 -13 45 1 45 17 0 12 -3 12
-16 -2 -23 -22 -29 -11 -14 24 6 17 10 36 7 43 -4 10 -6 9 -10 -2z"/>
<path d="M1217 1474 c3 -78 18 -91 27 -23 3 23 -1 42 -13 57 -16 22 -17 21
-14 -34z"/>
<path d="M1428 1463 c-15 -29 -23 -55 -19 -57 8 -5 54 91 49 102 -2 4 -15 -16
-30 -45z"/>
<path d="M1760 1501 c-30 -10 -63 -20 -72 -24 -41 -16 -51 -17 -64 -6 -11 9
-14 7 -14 -10 0 -16 -6 -21 -25 -21 -18 0 -25 -5 -25 -20 0 -29 57 -24 77 7 9
13 24 23 34 23 26 0 159 52 159 62 0 10 -2 9 -70 -11z"/>
<path d="M3645 1480 c-6 -29 -25 -52 -25 -31 0 6 -4 11 -9 11 -5 0 -7 -9 -4
-20 5 -21 33 -28 33 -9 0 5 3 8 8 6 4 -3 8 13 9 34 1 47 -3 50 -12 9z"/>
<path d="M1287 1473 c-3 -16 -2 -44 3 -63 7 -31 8 -28 9 28 1 66 -3 79 -12 35z"/>
<path d="M3441 1448 c-13 -29 -30 -66 -38 -82 -16 -36 -7 -111 10 -81 7 13 6
24 -1 36 -8 13 -8 18 2 22 7 3 19 27 26 54 14 53 30 78 30 48 0 -10 3 -16 6
-13 3 3 1 20 -3 37 l-8 31 -24 -52z"/>
<path d="M3816 1441 c-9 -27 -28 -59 -42 -72 -13 -12 -24 -26 -24 -31 0 -5 -9
-18 -20 -30 -21 -23 -26 -53 -10 -63 6 -3 10 2 10 13 0 21 40 86 72 116 17 16
22 16 30 5 8 -11 9 -11 5 3 -3 9 -1 32 5 52 18 59 -5 65 -26 7z"/>
<path d="M2353 1472 c-13 -8 -47 -82 -41 -88 2 -2 16 19 30 46 15 28 26 50 25
50 -1 0 -7 -4 -14 -8z"/>
<path d="M2193 1456 c-71 -26 -116 -81 -83 -101 6 -3 10 4 10 17 0 13 4 29 9
37 8 12 12 12 25 2 13 -11 19 -11 31 -1 8 7 12 16 10 21 -3 4 7 15 22 23 33
18 22 19 -24 2z m-19 -37 c-3 -5 -10 -7 -15 -3 -5 3 -7 10 -3 15 3 5 10 7 15
3 5 -3 7 -10 3 -15z"/>
<path d="M2516 1438 c-13 -42 -14 -69 -2 -113 11 -43 14 -47 20 -27 5 14 3 36
-4 53 -7 15 -10 44 -8 64 4 35 1 46 -6 23z"/>
<path d="M2766 1434 c-9 -23 -2 -28 13 -10 7 8 8 17 3 20 -6 3 -13 -1 -16 -10z"/>
<path d="M3510 1439 c0 -5 5 -7 10 -4 6 3 10 8 10 11 0 2 -4 4 -10 4 -5 0 -10
-5 -10 -11z"/>
<path d="M3980 1431 c0 -25 6 -27 13 -6 4 8 2 17 -3 20 -6 4 -10 -3 -10 -14z"/>
<path d="M2715 1430 c-3 -5 -1 -10 4 -10 6 0 11 5 11 10 0 6 -2 10 -4 10 -3 0
-8 -4 -11 -10z"/>
<path d="M1500 1415 c0 -9 5 -15 11 -13 6 2 11 8 11 13 0 5 -5 11 -11 13 -6 2
-11 -4 -11 -13z"/>
<path d="M2411 1414 c0 -11 3 -14 6 -6 3 7 2 16 -1 19 -3 4 -6 -2 -5 -13z"/>
<path d="M3751 1414 c0 -11 3 -14 6 -6 3 7 2 16 -1 19 -3 4 -6 -2 -5 -13z"/>
<path d="M3921 1414 c0 -11 3 -14 6 -6 3 7 2 16 -1 19 -3 4 -6 -2 -5 -13z"/>
<path d="M3936 1405 c-4 -14 -11 -23 -16 -20 -14 8 -28 -33 -34 -97 -3 -29 -3
-45 0 -35 9 28 27 20 20 -10 -4 -24 -3 -23 11 7 9 19 16 55 16 80 0 25 2 37 4
27 5 -18 5 -18 19 0 17 23 18 48 0 62 -11 9 -15 6 -20 -14z"/>
<path d="M1341 1404 c0 -11 3 -14 6 -6 3 7 2 16 -1 19 -3 4 -6 -2 -5 -13z"/>
<path d="M1520 1378 c-12 -22 -12 -22 6 -6 10 10 15 20 12 24 -4 3 -12 -5 -18
-18z"/>
<path d="M3367 1393 c-4 -3 -7 -15 -7 -27 0 -20 0 -20 15 0 8 10 15 22 15 27
0 9 -14 9 -23 0z"/>
<path d="M2404 1350 c-1 -22 2 -40 6 -40 12 0 17 20 12 52 -6 41 -17 34 -18
-12z"/>
<path d="M2780 1370 c0 -11 -5 -20 -11 -20 -6 0 -9 7 -5 15 6 17 -11 20 -34 5
-11 -7 -11 -10 -2 -10 7 0 10 -4 7 -10 -4 -6 8 -10 29 -10 32 0 36 3 36 25 0
14 -4 25 -10 25 -5 0 -10 -9 -10 -20z"/>
<path d="M2065 1371 c-4 -8 -1 -19 8 -28 19 -20 30 -1 13 22 -10 14 -15 15
-21 6z"/>
<path d="M2226 1354 c-4 -14 -5 -28 -3 -31 3 -2 8 8 11 23 4 14 5 28 3 31 -3
2 -8 -8 -11 -23z"/>
<path d="M3315 1370 c-3 -5 -1 -10 4 -10 6 0 11 5 11 10 0 6 -2 10 -4 10 -3 0
-8 -4 -11 -10z"/>
<path d="M2290 1360 c0 -5 5 -10 10 -10 6 0 10 5 10 10 0 6 -4 10 -10 10 -5 0
-10 -4 -10 -10z"/>
<path d="M1567 1344 c6 -15 23 -19 23 -5 0 5 -7 11 -14 14 -10 4 -13 1 -9 -9z"/>
<path d="M2003 1332 c-23 -15 -44 -35 -46 -44 -3 -10 -13 -18 -23 -18 -22 0
-154 -105 -154 -123 0 -3 7 -8 16 -11 21 -8 59 13 129 74 106 91 117 100 126
100 11 0 12 21 1 37 -5 8 -19 4 -49 -15z"/>
<path d="M3798 1329 c-7 -42 -3 -47 12 -20 7 13 7 27 2 38 -7 12 -10 9 -14
-18z"/>
<path d="M1425 1320 c-3 -5 -2 -10 4 -10 5 0 13 5 16 10 3 6 2 10 -4 10 -5 0
-13 -4 -16 -10z"/>
<path d="M3121 1312 c0 -9 4 -26 9 -37 7 -16 9 -17 9 -3 1 9 4 23 7 31 3 8 -2
17 -10 20 -11 4 -16 1 -15 -11z"/>
<path d="M3961 1322 c-1 -7 -10 -34 -22 -59 -11 -25 -18 -47 -16 -49 7 -8 49
97 43 109 -3 8 -5 8 -5 -1z"/>
<path d="M2985 1270 c3 -5 8 -10 11 -10 2 0 4 5 4 10 0 6 -5 10 -11 10 -5 0
-7 -4 -4 -10z"/>
<path d="M3462 1260 c0 -14 2 -19 5 -12 2 6 2 18 0 25 -3 6 -5 1 -5 -13z"/>
<path d="M3382 1240 c0 -14 2 -19 5 -12 2 6 2 18 0 25 -3 6 -5 1 -5 -13z"/>
<path d="M3360 1191 c0 -17 2 -31 4 -31 8 0 13 51 5 56 -5 3 -9 -9 -9 -25z"/>
<path d="M3696 1201 c-4 -7 -5 -15 -2 -18 9 -9 19 4 14 18 -4 11 -6 11 -12 0z"/>
<path d="M1712 1080 c0 -14 2 -19 5 -12 2 6 2 18 0 25 -3 6 -5 1 -5 -13z"/>
<path d="M1582 899 c8 -24 99 -38 128 -19 21 13 12 17 -64 25 -54 5 -67 4 -64
-6z"/>
<path d="M1818 873 c7 -3 16 -2 19 1 4 3 -2 6 -13 5 -11 0 -14 -3 -6 -6z"/>
<path d="M1082 765 c0 -11 3 -29 8 -40 11 -25 11 1 0 35 -6 20 -8 21 -8 5z"/>
<path d="M3978 733 c7 -3 16 -2 19 1 4 3 -2 6 -13 5 -11 0 -14 -3 -6 -6z"/>
<path d="M1945 580 c3 -5 16 -10 28 -10 18 0 19 2 7 10 -20 13 -43 13 -35 0z"/>
<path d="M2028 553 c7 -3 16 -2 19 1 4 3 -2 6 -13 5 -11 0 -14 -3 -6 -6z"/>
<path d="M2108 533 c6 -2 18 -2 25 0 6 3 1 5 -13 5 -14 0 -19 -2 -12 -5z"/>
<path d="M1858 523 c7 -3 16 -2 19 1 4 3 -2 6 -13 5 -11 0 -14 -3 -6 -6z"/>
<path d="M2077 505 c3 -8 9 -12 14 -9 12 7 11 11 -5 17 -10 4 -13 1 -9 -8z"/>
<path d="M2145 500 c3 -5 8 -10 11 -10 2 0 4 5 4 10 0 6 -5 10 -11 10 -5 0 -7
-4 -4 -10z"/>
<path d="M2198 483 c6 -2 18 -2 25 0 6 3 1 5 -13 5 -14 0 -19 -2 -12 -5z"/>
<path d="M2323 423 c1 -17 4 -29 6 -27 2 2 10 -1 18 -7 10 -9 13 -5 13 19 0
17 -5 34 -11 38 -9 5 -10 -2 -6 -22 l6 -29 -14 30 -14 30 2 -32z"/>
</g>
</svg>
